<svg width="20" height="20" viewBox="0 0 20 20" fill="none" xmlns="http://www.w3.org/2000/svg">
<path fill-rule="evenodd" clip-rule="evenodd" d="M-0.000976562 10C-0.000976562 4.48 4.46902 0 9.98902 0C15.519 0 19.999 4.48 19.999 10C19.999 15.52 15.519 20 9.98902 20C4.46902 20 -0.000976562 15.52 -0.000976562 10ZM10.999 6C10.999 5.45 10.549 5 9.99902 5C9.44902 5 8.99902 5.45 8.99902 6V10C8.99902 10.55 9.44902 11 9.99902 11C10.549 11 10.999 10.55 10.999 10V6ZM9.99902 18C5.57902 18 1.99902 14.42 1.99902 10C1.99902 5.58 5.57902 2 9.99902 2C14.419 2 17.999 5.58 17.999 10C17.999 14.42 14.419 18 9.99902 18ZM8.99902 13V15H10.999V13H8.99902Z" fill="#DA1414"/>
</svg>
