<svg width="16" height="16" viewBox="0 0 16 16" fill="none" xmlns="http://www.w3.org/2000/svg">
<path d="M8.99997 14.9086V3.73863L13.88 8.61863C14.27 9.00863 14.91 9.00863 15.3 8.61863C15.69 8.22863 15.69 7.59863 15.3 7.20863L8.70997 0.618627C8.52314 0.431374 8.26949 0.326141 8.00497 0.326141C7.74045 0.326141 7.4868 0.431374 7.29997 0.618627L0.699971 7.19863C0.309971 7.58863 0.309971 8.21863 0.699971 8.60863C1.08997 8.99863 1.71997 8.99863 2.10997 8.60863L6.99997 3.73863V14.9086C6.99997 15.4586 7.44997 15.9086 7.99997 15.9086C8.54997 15.9086 8.99997 15.4586 8.99997 14.9086Z" fill="#000"/>
</svg>
