<svg width="16" height="16" viewBox="0 0 16 16" fill="none" xmlns="http://www.w3.org/2000/svg">
<path d="M7.0051 1.32611V12.4961L2.1251 7.61611C1.7351 7.22611 1.0951 7.22611 0.705098 7.61611C0.315098 8.00611 0.315098 8.63611 0.705098 9.02611L7.2951 15.6161C7.6851 16.0061 8.3151 16.0061 8.7051 15.6161L15.2951 9.02611C15.6851 8.63611 15.6851 8.00611 15.2951 7.61611C15.1083 7.42886 14.8546 7.32363 14.5901 7.32363C14.3256 7.32363 14.0719 7.42886 13.8851 7.61611L9.0051 12.4961V1.32611C9.0051 0.776111 8.5551 0.326111 8.0051 0.326111C7.4551 0.326111 7.0051 0.776111 7.0051 1.32611Z" fill="#000"/>
</svg>
