<svg width="22" height="20" viewBox="0 0 22 20" fill="none" xmlns="http://www.w3.org/2000/svg">
<path fill-rule="evenodd" clip-rule="evenodd" d="M3.14407 10.0018C3.14407 4.95175 7.31407 0.861751 12.4041 1.00175C17.0941 1.13175 21.0141 5.05175 21.1441 9.74175C21.2841 14.8318 17.1941 19.0018 12.1441 19.0018C10.0541 19.0018 8.14407 18.2918 6.62407 17.0918C6.15407 16.7318 6.12407 16.0218 6.54407 15.6018C6.90407 15.2418 7.46407 15.2118 7.86407 15.5218C9.04407 16.4518 10.5341 17.0018 12.1441 17.0018C16.0441 17.0018 19.1941 13.8118 19.1441 9.90175C19.0941 6.18175 15.9641 3.05175 12.2441 3.00175C8.32407 2.95175 5.14407 6.10175 5.14407 10.0018H6.93407C7.38407 10.0018 7.60407 10.5417 7.29407 10.8518L4.50407 13.6518C4.30407 13.8518 3.99407 13.8518 3.79407 13.6518L1.00407 10.8518C0.684073 10.5417 0.904073 10.0018 1.35407 10.0018H3.14407ZM11.1441 6.75175C11.1441 6.34175 11.4841 6.00175 11.8941 6.00175C12.3041 6.00175 12.6441 6.34175 12.6441 6.74175V10.1418L15.5241 11.8518C15.8741 12.0618 15.9941 12.5218 15.7841 12.8818C15.5741 13.2318 15.1141 13.3518 14.7541 13.1418L11.6341 11.2917C11.3341 11.1118 11.1441 10.7818 11.1441 10.4318V6.75175Z" fill="#6D5FFD"/>
</svg>
