<svg width="120" height="120" viewBox="0 0 120 120" fill="none" xmlns="http://www.w3.org/2000/svg">
<mask id="mask0_2279_60760" style="mask-type:alpha" maskUnits="userSpaceOnUse" x="10" y="10" width="100" height="100">
<path fill-rule="evenodd" clip-rule="evenodd" d="M10 60C10 32.4 32.4 10 60 10C87.6 10 110 32.4 110 60C110 87.6 87.6 110 60 110C32.4 110 10 87.6 10 60ZM28.5 63.5L46.45 81.45C48.4 83.4 51.6 83.4 53.5 81.45L91.45 43.5C93.4 41.55 93.4 38.4 91.45 36.45C89.5 34.5 86.35 34.5 84.4 36.45L50 70.85L35.55 56.45C33.6 54.5 30.45 54.5 28.5 56.45C27.5637 57.3842 27.0376 58.6524 27.0376 59.975C27.0376 61.2976 27.5637 62.5658 28.5 63.5Z" fill="black"/>
</mask>
<g mask="url(#mask0_2279_60760)">
<rect width="120" height="120" fill="#6D5FFD"/>
</g>
</svg>
